<svg id="visual" viewBox="0 0 1920 1080" width="1920" height="1080" xmlns="http://www.w3.org/2000/svg" xmlns:xlink="http://www.w3.org/1999/xlink" version="1.1"><rect x="0" y="0" width="1920" height="1080" fill="#1DB954"></rect><path d="M0 691L45.7 699.5C91.3 708 182.7 725 274.2 731.8C365.7 738.7 457.3 735.3 548.8 724.7C640.3 714 731.7 696 823 703.8C914.3 711.7 1005.7 745.3 1097 759.5C1188.3 773.7 1279.7 768.3 1371.2 765.2C1462.7 762 1554.3 761 1645.8 790.8C1737.3 820.7 1828.7 881.3 1874.3 911.7L1920 942L1920 1081L1874.3 1081C1828.7 1081 1737.3 1081 1645.8 1081C1554.3 1081 1462.7 1081 1371.2 1081C1279.7 1081 1188.3 1081 1097 1081C1005.7 1081 914.3 1081 823 1081C731.7 1081 640.3 1081 548.8 1081C457.3 1081 365.7 1081 274.2 1081C182.7 1081 91.3 1081 45.7 1081L0 1081Z" fill="#1a8941" stroke-linecap="round" stroke-linejoin="miter"></path></svg>